<?xml version="1.0" encoding="UTF-8" standalone="no"?>
<!DOCTYPE svg PUBLIC "-//W3C//DTD SVG 1.1//EN"
 "http://www.w3.org/Graphics/SVG/1.1/DTD/svg11.dtd">
<!-- Generated by graphviz version 2.36.0 (20140111.2315)
 -->
<!-- Title: controllers_diagram Pages: 1 -->
<svg width="781pt" height="578pt"
 viewBox="0.00 0.00 781.00 577.67" xmlns="http://www.w3.org/2000/svg" xmlns:xlink="http://www.w3.org/1999/xlink">
<g id="graph0" class="graph" transform="scale(1 1) rotate(0) translate(4 573.667)">
<title>controllers_diagram</title>
<polygon fill="white" stroke="none" points="-4,4 -4,-573.667 777,-573.667 777,4 -4,4"/>
<!-- _diagram_info -->
<g id="node1" class="node"><title>_diagram_info</title>
<text text-anchor="start" x="567" y="-63.6" font-family="Times,serif" font-size="13.00">Controllers diagram</text>
<text text-anchor="start" x="567" y="-49.6" font-family="Times,serif" font-size="13.00">Date: Jul 09 2014 &#45; 10:15</text>
<text text-anchor="start" x="567" y="-35.6" font-family="Times,serif" font-size="13.00">Migration version: 20140624214308</text>
<text text-anchor="start" x="567" y="-21.6" font-family="Times,serif" font-size="13.00">Generated by RailRoady 1.1.1</text>
<text text-anchor="start" x="567" y="-7.6" font-family="Times,serif" font-size="13.00">http://railroady.prestonlee.com</text>
</g>
<!-- EscrowsController -->
<g id="node2" class="node"><title>EscrowsController</title>
<path fill="none" stroke="black" d="M24.3835,-59.1059C24.3835,-59.1059 118.383,-59.1059 118.383,-59.1059 124.383,-59.1059 130.383,-65.1059 130.383,-71.1059 130.383,-71.1059 130.383,-260.106 130.383,-260.106 130.383,-266.106 124.383,-272.106 118.383,-272.106 118.383,-272.106 24.3835,-272.106 24.3835,-272.106 18.3835,-272.106 12.3835,-266.106 12.3835,-260.106 12.3835,-260.106 12.3835,-71.1059 12.3835,-71.1059 12.3835,-65.1059 18.3835,-59.1059 24.3835,-59.1059"/>
<text text-anchor="middle" x="71.3835" y="-256.906" font-family="Times,serif" font-size="14.00">EscrowsController</text>
<polyline fill="none" stroke="black" points="12.3835,-249.106 130.383,-249.106 "/>
<text text-anchor="start" x="20.3835" y="-233.906" font-family="Times,serif" font-size="14.00">create</text>
<text text-anchor="start" x="20.3835" y="-218.906" font-family="Times,serif" font-size="14.00">destroy</text>
<text text-anchor="start" x="20.3835" y="-203.906" font-family="Times,serif" font-size="14.00">edit</text>
<text text-anchor="start" x="20.3835" y="-188.906" font-family="Times,serif" font-size="14.00">index</text>
<text text-anchor="start" x="20.3835" y="-173.906" font-family="Times,serif" font-size="14.00">new</text>
<text text-anchor="start" x="20.3835" y="-158.906" font-family="Times,serif" font-size="14.00">show</text>
<text text-anchor="start" x="20.3835" y="-143.906" font-family="Times,serif" font-size="14.00">update</text>
<polyline fill="none" stroke="black" points="12.3835,-136.106 130.383,-136.106 "/>
<polyline fill="none" stroke="black" points="12.3835,-112.106 130.383,-112.106 "/>
<text text-anchor="start" x="20.3835" y="-96.9059" font-family="Times,serif" font-size="14.00">_layout</text>
<text text-anchor="start" x="20.3835" y="-81.9059" font-family="Times,serif" font-size="14.00">escrow_params</text>
<text text-anchor="start" x="20.3835" y="-66.9059" font-family="Times,serif" font-size="14.00">set_escrow</text>
</g>
<!-- SetLanguageController -->
<g id="node3" class="node"><title>SetLanguageController</title>
<path fill="none" stroke="black" d="M392.616,-218.807C392.616,-218.807 520.616,-218.807 520.616,-218.807 526.616,-218.807 532.616,-224.807 532.616,-230.807 532.616,-230.807 532.616,-329.807 532.616,-329.807 532.616,-335.807 526.616,-341.807 520.616,-341.807 520.616,-341.807 392.616,-341.807 392.616,-341.807 386.616,-341.807 380.616,-335.807 380.616,-329.807 380.616,-329.807 380.616,-230.807 380.616,-230.807 380.616,-224.807 386.616,-218.807 392.616,-218.807"/>
<text text-anchor="middle" x="456.616" y="-326.607" font-family="Times,serif" font-size="14.00">SetLanguageController</text>
<polyline fill="none" stroke="black" points="380.616,-318.807 532.616,-318.807 "/>
<text text-anchor="start" x="388.616" y="-303.607" font-family="Times,serif" font-size="14.00">english</text>
<text text-anchor="start" x="388.616" y="-288.607" font-family="Times,serif" font-size="14.00">spanish</text>
<polyline fill="none" stroke="black" points="380.616,-280.807 532.616,-280.807 "/>
<polyline fill="none" stroke="black" points="380.616,-256.807 532.616,-256.807 "/>
<text text-anchor="start" x="388.616" y="-241.607" font-family="Times,serif" font-size="14.00">_layout</text>
<text text-anchor="start" x="388.616" y="-226.607" font-family="Times,serif" font-size="14.00">set_session_and_redirect</text>
</g>
<!-- ApplicationController -->
<g id="node4" class="node"><title>ApplicationController</title>
<path fill="none" stroke="black" d="M200.716,-205.776C200.716,-205.776 312.716,-205.776 312.716,-205.776 318.716,-205.776 324.716,-211.776 324.716,-217.776 324.716,-217.776 324.716,-347.776 324.716,-347.776 324.716,-353.776 318.716,-359.776 312.716,-359.776 312.716,-359.776 200.716,-359.776 200.716,-359.776 194.716,-359.776 188.716,-353.776 188.716,-347.776 188.716,-347.776 188.716,-217.776 188.716,-217.776 188.716,-211.776 194.716,-205.776 200.716,-205.776"/>
<text text-anchor="middle" x="256.716" y="-344.576" font-family="Times,serif" font-size="14.00">ApplicationController</text>
<polyline fill="none" stroke="black" points="188.716,-336.776 324.716,-336.776 "/>
<polyline fill="none" stroke="black" points="188.716,-312.776 324.716,-312.776 "/>
<polyline fill="none" stroke="black" points="188.716,-288.776 324.716,-288.776 "/>
<text text-anchor="start" x="196.716" y="-273.576" font-family="Times,serif" font-size="14.00">_layout</text>
<text text-anchor="start" x="196.716" y="-258.576" font-family="Times,serif" font-size="14.00">check_user_data</text>
<text text-anchor="start" x="196.716" y="-243.576" font-family="Times,serif" font-size="14.00">current_user</text>
<text text-anchor="start" x="196.716" y="-228.576" font-family="Times,serif" font-size="14.00">set_locale</text>
<text text-anchor="start" x="196.716" y="-213.576" font-family="Times,serif" font-size="14.00">signed_in?</text>
</g>
<!-- ApplicationController&#45;&gt;EscrowsController -->
<g id="edge1" class="edge"><title>ApplicationController&#45;&gt;EscrowsController</title>
<path fill="none" stroke="black" d="M188.495,-239.646C169.504,-227.639 149.038,-214.7 130.609,-203.049"/>
</g>
<!-- ApplicationController&#45;&gt;SetLanguageController -->
<g id="edge2" class="edge"><title>ApplicationController&#45;&gt;SetLanguageController</title>
<path fill="none" stroke="black" d="M324.951,-281.933C342.822,-281.713 362.201,-281.473 380.457,-281.248"/>
</g>
<!-- WelcomeController -->
<g id="node5" class="node"><title>WelcomeController</title>
<path fill="none" stroke="black" d="M214.303,-423.609C214.303,-423.609 315.303,-423.609 315.303,-423.609 321.303,-423.609 327.303,-429.609 327.303,-435.609 327.303,-435.609 327.303,-504.609 327.303,-504.609 327.303,-510.609 321.303,-516.609 315.303,-516.609 315.303,-516.609 214.303,-516.609 214.303,-516.609 208.303,-516.609 202.303,-510.609 202.303,-504.609 202.303,-504.609 202.303,-435.609 202.303,-435.609 202.303,-429.609 208.303,-423.609 214.303,-423.609"/>
<text text-anchor="middle" x="264.803" y="-501.409" font-family="Times,serif" font-size="14.00">WelcomeController</text>
<polyline fill="none" stroke="black" points="202.303,-493.609 327.303,-493.609 "/>
<text text-anchor="start" x="210.303" y="-478.409" font-family="Times,serif" font-size="14.00">index</text>
<polyline fill="none" stroke="black" points="202.303,-470.609 327.303,-470.609 "/>
<polyline fill="none" stroke="black" points="202.303,-446.609 327.303,-446.609 "/>
<text text-anchor="start" x="210.303" y="-431.409" font-family="Times,serif" font-size="14.00">_layout</text>
</g>
<!-- ApplicationController&#45;&gt;WelcomeController -->
<g id="edge3" class="edge"><title>ApplicationController&#45;&gt;WelcomeController</title>
<path fill="none" stroke="black" d="M260.041,-359.783C260.973,-381.379 261.958,-404.196 262.789,-423.44"/>
</g>
<!-- EventsController -->
<g id="node6" class="node"><title>EventsController</title>
<path fill="none" stroke="black" d="M412.479,-356.167C412.479,-356.167 497.479,-356.167 497.479,-356.167 503.479,-356.167 509.479,-362.167 509.479,-368.167 509.479,-368.167 509.479,-557.167 509.479,-557.167 509.479,-563.167 503.479,-569.167 497.479,-569.167 497.479,-569.167 412.479,-569.167 412.479,-569.167 406.479,-569.167 400.479,-563.167 400.479,-557.167 400.479,-557.167 400.479,-368.167 400.479,-368.167 400.479,-362.167 406.479,-356.167 412.479,-356.167"/>
<text text-anchor="middle" x="454.979" y="-553.967" font-family="Times,serif" font-size="14.00">EventsController</text>
<polyline fill="none" stroke="black" points="400.479,-546.167 509.479,-546.167 "/>
<text text-anchor="start" x="408.479" y="-530.967" font-family="Times,serif" font-size="14.00">create</text>
<text text-anchor="start" x="408.479" y="-515.967" font-family="Times,serif" font-size="14.00">destroy</text>
<text text-anchor="start" x="408.479" y="-500.967" font-family="Times,serif" font-size="14.00">edit</text>
<text text-anchor="start" x="408.479" y="-485.967" font-family="Times,serif" font-size="14.00">index</text>
<text text-anchor="start" x="408.479" y="-470.967" font-family="Times,serif" font-size="14.00">new</text>
<text text-anchor="start" x="408.479" y="-455.967" font-family="Times,serif" font-size="14.00">show</text>
<text text-anchor="start" x="408.479" y="-440.967" font-family="Times,serif" font-size="14.00">update</text>
<polyline fill="none" stroke="black" points="400.479,-433.167 509.479,-433.167 "/>
<polyline fill="none" stroke="black" points="400.479,-409.167 509.479,-409.167 "/>
<text text-anchor="start" x="408.479" y="-393.967" font-family="Times,serif" font-size="14.00">_layout</text>
<text text-anchor="start" x="408.479" y="-378.967" font-family="Times,serif" font-size="14.00">event_params</text>
<text text-anchor="start" x="408.479" y="-363.967" font-family="Times,serif" font-size="14.00">set_event</text>
</g>
<!-- ApplicationController&#45;&gt;EventsController -->
<g id="edge4" class="edge"><title>ApplicationController&#45;&gt;EventsController</title>
<path fill="none" stroke="black" d="M324.947,-344.685C349.59,-367.044 377.063,-391.971 400.384,-413.132"/>
</g>
<!-- VenuesController -->
<g id="node7" class="node"><title>VenuesController</title>
<path fill="none" stroke="black" d="M12,-308.968C12,-308.968 154,-308.968 154,-308.968 160,-308.968 166,-314.968 166,-320.968 166,-320.968 166,-539.968 166,-539.968 166,-545.968 160,-551.968 154,-551.968 154,-551.968 12,-551.968 12,-551.968 6,-551.968 0,-545.968 0,-539.968 0,-539.968 0,-320.968 0,-320.968 0,-314.968 6,-308.968 12,-308.968"/>
<text text-anchor="middle" x="83" y="-536.768" font-family="Times,serif" font-size="14.00">VenuesController</text>
<polyline fill="none" stroke="black" points="0,-528.968 166,-528.968 "/>
<text text-anchor="start" x="8" y="-513.768" font-family="Times,serif" font-size="14.00">autocomplete_venue_name</text>
<text text-anchor="start" x="8" y="-498.768" font-family="Times,serif" font-size="14.00">create</text>
<text text-anchor="start" x="8" y="-483.768" font-family="Times,serif" font-size="14.00">destroy</text>
<text text-anchor="start" x="8" y="-468.768" font-family="Times,serif" font-size="14.00">edit</text>
<text text-anchor="start" x="8" y="-453.768" font-family="Times,serif" font-size="14.00">index</text>
<text text-anchor="start" x="8" y="-438.768" font-family="Times,serif" font-size="14.00">new</text>
<text text-anchor="start" x="8" y="-423.768" font-family="Times,serif" font-size="14.00">show</text>
<text text-anchor="start" x="8" y="-408.768" font-family="Times,serif" font-size="14.00">tag_cloud</text>
<text text-anchor="start" x="8" y="-393.768" font-family="Times,serif" font-size="14.00">update</text>
<polyline fill="none" stroke="black" points="0,-385.968 166,-385.968 "/>
<polyline fill="none" stroke="black" points="0,-361.968 166,-361.968 "/>
<text text-anchor="start" x="8" y="-346.768" font-family="Times,serif" font-size="14.00">_layout</text>
<text text-anchor="start" x="8" y="-331.768" font-family="Times,serif" font-size="14.00">set_venue</text>
<text text-anchor="start" x="8" y="-316.768" font-family="Times,serif" font-size="14.00">venue_params</text>
</g>
<!-- ApplicationController&#45;&gt;VenuesController -->
<g id="edge5" class="edge"><title>ApplicationController&#45;&gt;VenuesController</title>
<path fill="none" stroke="black" d="M188.558,-340.724C181.238,-346.947 173.733,-353.327 166.264,-359.678"/>
</g>
<!-- SessionsController -->
<g id="node8" class="node"><title>SessionsController</title>
<path fill="none" stroke="black" d="M184.071,-43.5C184.071,-43.5 279.071,-43.5 279.071,-43.5 285.071,-43.5 291.071,-49.5 291.071,-55.5 291.071,-55.5 291.071,-139.5 291.071,-139.5 291.071,-145.5 285.071,-151.5 279.071,-151.5 279.071,-151.5 184.071,-151.5 184.071,-151.5 178.071,-151.5 172.071,-145.5 172.071,-139.5 172.071,-139.5 172.071,-55.5 172.071,-55.5 172.071,-49.5 178.071,-43.5 184.071,-43.5"/>
<text text-anchor="middle" x="231.571" y="-136.3" font-family="Times,serif" font-size="14.00">SessionsController</text>
<polyline fill="none" stroke="black" points="172.071,-128.5 291.071,-128.5 "/>
<text text-anchor="start" x="180.071" y="-113.3" font-family="Times,serif" font-size="14.00">create</text>
<text text-anchor="start" x="180.071" y="-98.3" font-family="Times,serif" font-size="14.00">destroy</text>
<polyline fill="none" stroke="black" points="172.071,-90.5 291.071,-90.5 "/>
<polyline fill="none" stroke="black" points="172.071,-66.5 291.071,-66.5 "/>
<text text-anchor="start" x="180.071" y="-51.3" font-family="Times,serif" font-size="14.00">_layout</text>
</g>
<!-- ApplicationController&#45;&gt;SessionsController -->
<g id="edge6" class="edge"><title>ApplicationController&#45;&gt;SessionsController</title>
<path fill="none" stroke="black" d="M246.234,-205.544C243.782,-187.473 241.22,-168.597 238.937,-151.772"/>
</g>
<!-- UsersController -->
<g id="node9" class="node"><title>UsersController</title>
<path fill="none" stroke="black" d="M401.2,-44.4894C401.2,-44.4894 480.2,-44.4894 480.2,-44.4894 486.2,-44.4894 492.2,-50.4894 492.2,-56.4894 492.2,-56.4894 492.2,-155.489 492.2,-155.489 492.2,-161.489 486.2,-167.489 480.2,-167.489 480.2,-167.489 401.2,-167.489 401.2,-167.489 395.2,-167.489 389.2,-161.489 389.2,-155.489 389.2,-155.489 389.2,-56.4894 389.2,-56.4894 389.2,-50.4894 395.2,-44.4894 401.2,-44.4894"/>
<text text-anchor="middle" x="440.7" y="-152.289" font-family="Times,serif" font-size="14.00">UsersController</text>
<polyline fill="none" stroke="black" points="389.2,-144.489 492.2,-144.489 "/>
<text text-anchor="start" x="397.2" y="-129.289" font-family="Times,serif" font-size="14.00">edit</text>
<text text-anchor="start" x="397.2" y="-114.289" font-family="Times,serif" font-size="14.00">update</text>
<polyline fill="none" stroke="black" points="389.2,-106.489 492.2,-106.489 "/>
<polyline fill="none" stroke="black" points="389.2,-82.4894 492.2,-82.4894 "/>
<text text-anchor="start" x="397.2" y="-67.2894" font-family="Times,serif" font-size="14.00">_layout</text>
<text text-anchor="start" x="397.2" y="-52.2894" font-family="Times,serif" font-size="14.00">user_params</text>
</g>
<!-- ApplicationController&#45;&gt;UsersController -->
<g id="edge7" class="edge"><title>ApplicationController&#45;&gt;UsersController</title>
<path fill="none" stroke="black" d="M324.963,-217.199C346.132,-196.858 369.102,-174.786 388.956,-155.709"/>
</g>
</g>
</svg>
