<?xml version="1.0" encoding="UTF-8" standalone="no"?>
<!DOCTYPE svg PUBLIC "-//W3C//DTD SVG 1.1//EN"
 "http://www.w3.org/Graphics/SVG/1.1/DTD/svg11.dtd">
<!-- Generated by graphviz version 2.36.0 (20140111.2315)
 -->
<!-- Title: models_diagram Pages: 1 -->
<svg width="777pt" height="322pt"
 viewBox="0.00 0.00 777.00 322.00" xmlns="http://www.w3.org/2000/svg" xmlns:xlink="http://www.w3.org/1999/xlink">
<g id="graph0" class="graph" transform="scale(1 1) rotate(0) translate(4 318)">
<title>models_diagram</title>
<polygon fill="white" stroke="none" points="-4,4 -4,-318 773,-318 773,4 -4,4"/>
<!-- _diagram_info -->
<g id="node1" class="node"><title>_diagram_info</title>
<text text-anchor="start" x="190" y="-299.6" font-family="Times,serif" font-size="13.00">Models diagram</text>
<text text-anchor="start" x="190" y="-285.6" font-family="Times,serif" font-size="13.00">Date: Jul 09 2014 &#45; 10:15</text>
<text text-anchor="start" x="190" y="-271.6" font-family="Times,serif" font-size="13.00">Migration version: 20140624214308</text>
<text text-anchor="start" x="190" y="-257.6" font-family="Times,serif" font-size="13.00">Generated by RailRoady 1.1.1</text>
<text text-anchor="start" x="190" y="-243.6" font-family="Times,serif" font-size="13.00">http://railroady.prestonlee.com</text>
</g>
<!-- Escrow -->
<g id="node2" class="node"><title>Escrow</title>
<ellipse fill="none" stroke="black" cx="276" cy="-180" rx="37.0701" ry="18"/>
<text text-anchor="middle" x="276" y="-176.3" font-family="Times,serif" font-size="14.00">Escrow</text>
</g>
<!-- Venue -->
<g id="node3" class="node"><title>Venue</title>
<ellipse fill="none" stroke="black" cx="365" cy="-180" rx="33.1991" ry="18"/>
<text text-anchor="middle" x="365" y="-176.3" font-family="Times,serif" font-size="14.00">Venue</text>
</g>
<!-- Event -->
<g id="node6" class="node"><title>Event</title>
<ellipse fill="none" stroke="black" cx="530" cy="-92" rx="31.2965" ry="18"/>
<text text-anchor="middle" x="530" y="-88.3" font-family="Times,serif" font-size="14.00">Event</text>
</g>
<!-- Venue&#45;&gt;Event -->
<g id="edge6" class="edge"><title>Venue&#45;&gt;Event</title>
<path fill="none" stroke="#ef5f42" d="M398.482,-165.524C402.01,-164.266 405.563,-163.065 409,-162 442.155,-151.721 455.23,-161.852 485,-144 496.122,-137.33 505.983,-126.997 513.619,-117.37"/>
<ellipse fill="none" stroke="#ef5f42" cx="394.605" cy="-166.954" rx="4.00001" ry="4.00001"/>
<polygon fill="#ef5f42" stroke="#ef5f42" points="513.74,-117.209 523.334,-111.899 516.736,-113.206 519.732,-109.203 519.732,-109.203 519.732,-109.203 516.736,-113.206 516.129,-106.507 513.74,-117.209 513.74,-117.209"/>
</g>
<!-- Occurence -->
<g id="node7" class="node"><title>Occurence</title>
<ellipse fill="none" stroke="black" cx="530" cy="-18" rx="48.1437" ry="18"/>
<text text-anchor="middle" x="530" y="-14.3" font-family="Times,serif" font-size="14.00">Occurence</text>
</g>
<!-- Venue&#45;&gt;Occurence -->
<g id="edge7" class="edge"><title>Venue&#45;&gt;Occurence</title>
<path fill="none" stroke="#510a99" d="M400.475,-164.811C420.439,-156.625 442.135,-147.314 446,-144 473.897,-120.082 469.404,-104.432 490,-74 496.789,-63.9684 504.561,-53.144 511.438,-43.7733"/>
<polygon fill="#510a99" stroke="#510a99" points="400.46,-164.817 389.501,-164.419 395.828,-166.702 391.197,-168.587 391.197,-168.587 391.197,-168.587 395.828,-166.702 392.894,-172.755 400.46,-164.817 400.46,-164.817"/>
<polygon fill="#510a99" stroke="#510a99" points="511.504,-43.6832 521.066,-38.315 514.476,-39.6619 517.447,-35.6407 517.447,-35.6407 517.447,-35.6407 514.476,-39.6619 513.828,-32.9663 511.504,-43.6832 511.504,-43.6832"/>
</g>
<!-- ActsAsTaggableOn::Tagging -->
<g id="node10" class="node"><title>ActsAsTaggableOn::Tagging</title>
<ellipse fill="none" stroke="black" cx="329" cy="-92" rx="114.085" ry="18"/>
<text text-anchor="middle" x="329" y="-88.3" font-family="Times,serif" font-size="14.00">ActsAsTaggableOn::Tagging</text>
</g>
<!-- Venue&#45;&gt;ActsAsTaggableOn::Tagging -->
<g id="edge2" class="edge"><title>Venue&#45;&gt;ActsAsTaggableOn::Tagging</title>
<path fill="none" stroke="#786e02" d="M331.037,-165.489C316.152,-158.811 301.122,-150.757 297,-144 291.72,-135.344 295.036,-125.926 301.191,-117.565"/>
<ellipse fill="none" stroke="#786e02" cx="335.08" cy="-167.247" rx="4.00002" ry="4.00002"/>
<polygon fill="#786e02" stroke="#786e02" points="301.243,-117.505 311.182,-112.873 304.509,-113.719 307.774,-109.933 307.774,-109.933 307.774,-109.933 304.509,-113.719 304.367,-106.994 301.243,-117.505 301.243,-117.505"/>
<text text-anchor="middle" x="320" y="-132.3" font-family="Times,serif" font-size="14.00">taggings</text>
</g>
<!-- Venue&#45;&gt;ActsAsTaggableOn::Tagging -->
<g id="edge4" class="edge"><title>Venue&#45;&gt;ActsAsTaggableOn::Tagging</title>
<path fill="none" stroke="#b7a58e" d="M354.763,-154.545C350.185,-143.608 344.778,-130.691 340.102,-119.522"/>
<ellipse fill="none" stroke="#b7a58e" cx="356.343" cy="-158.319" rx="4.00002" ry="4.00002"/>
<polygon fill="#b7a58e" stroke="#b7a58e" points="340.082,-119.474 340.372,-108.512 338.152,-114.862 336.221,-110.25 336.221,-110.25 336.221,-110.25 338.152,-114.862 332.07,-111.988 340.082,-119.474 340.082,-119.474"/>
<text text-anchor="middle" x="396.5" y="-132.3" font-family="Times,serif" font-size="14.00">feature_taggings</text>
</g>
<!-- ActsAsTaggableOn::Tag -->
<g id="node11" class="node"><title>ActsAsTaggableOn::Tag</title>
<ellipse fill="none" stroke="black" cx="98" cy="-92" rx="98.1881" ry="18"/>
<text text-anchor="middle" x="98" y="-88.3" font-family="Times,serif" font-size="14.00">ActsAsTaggableOn::Tag</text>
</g>
<!-- Venue&#45;&gt;ActsAsTaggableOn::Tag -->
<g id="edge3" class="edge"><title>Venue&#45;&gt;ActsAsTaggableOn::Tag</title>
<path fill="none" stroke="#9223e5" d="M329.857,-164.565C327.216,-163.646 324.576,-162.779 322,-162 285.455,-150.943 274.692,-154.56 238,-144 206.893,-135.048 172.747,-122.662 145.965,-112.338"/>
<polygon fill="#9223e5" stroke="#9223e5" points="329.939,-164.595 337.769,-172.272 334.631,-166.322 339.323,-168.049 339.323,-168.049 339.323,-168.049 334.631,-166.322 340.877,-163.826 329.939,-164.595 329.939,-164.595"/>
<polygon fill="#9223e5" stroke="#9223e5" points="145.77,-112.263 138.081,-104.444 141.11,-110.45 136.45,-108.638 136.45,-108.638 136.45,-108.638 141.11,-110.45 134.819,-112.832 145.77,-112.263 145.77,-112.263"/>
<text text-anchor="middle" x="264.5" y="-132.3" font-family="Times,serif" font-size="14.00">base_tags</text>
</g>
<!-- Venue&#45;&gt;ActsAsTaggableOn::Tag -->
<g id="edge5" class="edge"><title>Venue&#45;&gt;ActsAsTaggableOn::Tag</title>
<path fill="none" stroke="#ed9c68" d="M330.444,-164.401C327.617,-163.494 324.779,-162.677 322,-162 245.174,-143.287 215.72,-179.371 145,-144 133.222,-138.109 122.928,-127.942 115.001,-118.229"/>
<polygon fill="#ed9c68" stroke="#ed9c68" points="330.482,-164.414 338.411,-171.989 335.197,-166.08 339.911,-167.747 339.911,-167.747 339.911,-167.747 335.197,-166.08 341.41,-163.504 330.482,-164.414 330.482,-164.414"/>
<polygon fill="#ed9c68" stroke="#ed9c68" points="114.996,-118.221 112.492,-107.545 111.957,-114.251 108.918,-110.28 108.918,-110.28 108.918,-110.28 111.957,-114.251 105.345,-113.015 114.996,-118.221 114.996,-118.221"/>
<text text-anchor="middle" x="166.5" y="-132.3" font-family="Times,serif" font-size="14.00">features</text>
</g>
<!-- Location -->
<g id="node4" class="node"><title>Location</title>
<ellipse fill="none" stroke="black" cx="460" cy="-180" rx="42.3701" ry="18"/>
<text text-anchor="middle" x="460" y="-176.3" font-family="Times,serif" font-size="14.00">Location</text>
</g>
<!-- User -->
<g id="node5" class="node"><title>User</title>
<ellipse fill="none" stroke="black" cx="600" cy="-180" rx="26.949" ry="18"/>
<text text-anchor="middle" x="600" y="-176.3" font-family="Times,serif" font-size="14.00">User</text>
</g>
<!-- Picture -->
<g id="node12" class="node"><title>Picture</title>
<ellipse fill="none" stroke="black" cx="615" cy="-92" rx="35.6194" ry="18"/>
<text text-anchor="middle" x="615" y="-88.3" font-family="Times,serif" font-size="14.00">Picture</text>
</g>
<!-- User&#45;&gt;Picture -->
<g id="edge10" class="edge"><title>User&#45;&gt;Picture</title>
<path fill="none" stroke="#09c074" d="M604.344,-154.097C606.313,-142.805 608.638,-129.477 610.612,-118.155"/>
<ellipse fill="none" stroke="#09c074" cx="603.651" cy="-158.069" rx="4.00001" ry="4.00001"/>
<ellipse fill="#09c074" stroke="#09c074" cx="611.355" cy="-113.896" rx="4.00001" ry="4.00001"/>
</g>
<!-- Event&#45;&gt;Occurence -->
<g id="edge12" class="edge"><title>Event&#45;&gt;Occurence</title>
<path fill="none" stroke="#b1efee" d="M530,-65.7923C530,-59.5805 530,-52.8963 530,-46.5786"/>
<ellipse fill="none" stroke="#b1efee" cx="530" cy="-69.937" rx="4" ry="4"/>
<polygon fill="#b1efee" stroke="#b1efee" points="530,-46.4407 534.5,-36.4406 530,-41.4407 530,-36.4407 530,-36.4407 530,-36.4407 530,-41.4407 525.5,-36.4407 530,-46.4407 530,-46.4407"/>
</g>
<!-- Ability -->
<g id="node8" class="node"><title>Ability</title>
<polygon fill="none" stroke="black" points="762.25,-198 707.75,-198 707.75,-162 762.25,-162 762.25,-198"/>
<text text-anchor="middle" x="735" y="-176.3" font-family="Times,serif" font-size="14.00">Ability</text>
</g>
<!-- ActiveRecord::Base -->
<g id="node9" class="node"><title>ActiveRecord::Base</title>
<ellipse fill="none" stroke="black" cx="495" cy="-275" rx="81.3646" ry="18"/>
<text text-anchor="middle" x="495" y="-271.3" font-family="Times,serif" font-size="14.00">ActiveRecord::Base</text>
</g>
<!-- ActiveRecord::Base&#45;&gt;Escrow -->
<g id="edge1" class="edge"><title>ActiveRecord::Base&#45;&gt;Escrow</title>
<path fill="none" stroke="black" d="M458.837,-258.643C414.979,-240.019 342.073,-209.058 302.885,-192.417"/>
</g>
<!-- ActiveRecord::Base&#45;&gt;Venue -->
<g id="edge8" class="edge"><title>ActiveRecord::Base&#45;&gt;Venue</title>
<path fill="none" stroke="black" d="M472.058,-257.588C447.129,-239.754 407.736,-211.573 384.325,-194.825"/>
</g>
<!-- ActiveRecord::Base&#45;&gt;Location -->
<g id="edge9" class="edge"><title>ActiveRecord::Base&#45;&gt;Location</title>
<path fill="none" stroke="black" d="M488.58,-256.942C482.265,-240.162 472.68,-214.692 466.379,-197.949"/>
</g>
<!-- ActiveRecord::Base&#45;&gt;User -->
<g id="edge11" class="edge"><title>ActiveRecord::Base&#45;&gt;User</title>
<path fill="none" stroke="black" d="M513.772,-257.373C533.828,-239.61 565.272,-211.759 584.135,-195.052"/>
</g>
<!-- ActiveRecord::Base&#45;&gt;Event -->
<g id="edge13" class="edge"><title>ActiveRecord::Base&#45;&gt;Event</title>
<path fill="none" stroke="black" d="M498.762,-256.824C502.097,-241.438 507.038,-218.246 511,-198 517.048,-167.093 523.442,-130.932 527.056,-110.124"/>
</g>
<!-- ActiveRecord::Base&#45;&gt;Occurence -->
<g id="edge14" class="edge"><title>ActiveRecord::Base&#45;&gt;Occurence</title>
<path fill="none" stroke="black" d="M541.133,-260.058C572.316,-248.329 612.031,-228.502 636,-198 660.978,-166.215 653.847,-150.095 659,-110 661.04,-94.1305 667.82,-87.3492 659,-74 640.277,-45.6636 603.654,-31.8777 574.199,-25.1988"/>
</g>
<!-- Object -->
<g id="node13" class="node"><title>Object</title>
<ellipse fill="none" stroke="black" cx="735" cy="-275" rx="34.1708" ry="18"/>
<text text-anchor="middle" x="735" y="-271.3" font-family="Times,serif" font-size="14.00">Object</text>
</g>
<!-- Object&#45;&gt;Ability -->
<g id="edge15" class="edge"><title>Object&#45;&gt;Ability</title>
<path fill="none" stroke="black" d="M735,-256.942C735,-240.267 735,-215.01 735,-198.264"/>
</g>
</g>
</svg>
