<?xml version="1.0" encoding="UTF-8" standalone="no"?>
<!DOCTYPE svg PUBLIC "-//W3C//DTD SVG 1.1//EN"
 "http://www.w3.org/Graphics/SVG/1.1/DTD/svg11.dtd">
<!-- Generated by graphviz version 2.36.0 (20140111.2315)
 -->
<!-- Title: models_diagram Pages: 1 -->
<svg width="901pt" height="926pt"
 viewBox="0.00 0.00 901.00 926.00" xmlns="http://www.w3.org/2000/svg" xmlns:xlink="http://www.w3.org/1999/xlink">
<g id="graph0" class="graph" transform="scale(1 1) rotate(0) translate(4 922)">
<title>models_diagram</title>
<polygon fill="white" stroke="none" points="-4,4 -4,-922 897,-922 897,4 -4,4"/>
<!-- _diagram_info -->
<g id="node1" class="node"><title>_diagram_info</title>
<text text-anchor="start" x="257" y="-903.6" font-family="Times,serif" font-size="13.00">Models diagram</text>
<text text-anchor="start" x="257" y="-889.6" font-family="Times,serif" font-size="13.00">Date: Jul 09 2014 &#45; 10:15</text>
<text text-anchor="start" x="257" y="-875.6" font-family="Times,serif" font-size="13.00">Migration version: 20140624214308</text>
<text text-anchor="start" x="257" y="-861.6" font-family="Times,serif" font-size="13.00">Generated by RailRoady 1.1.1</text>
<text text-anchor="start" x="257" y="-847.6" font-family="Times,serif" font-size="13.00">http://railroady.prestonlee.com</text>
</g>
<!-- Escrow -->
<g id="node2" class="node"><title>Escrow</title>
<path fill="none" stroke="black" d="M12,-440.5C12,-440.5 224,-440.5 224,-440.5 230,-440.5 236,-446.5 236,-452.5 236,-452.5 236,-789.5 236,-789.5 236,-795.5 230,-801.5 224,-801.5 224,-801.5 12,-801.5 12,-801.5 6,-801.5 0,-795.5 0,-789.5 0,-789.5 0,-452.5 0,-452.5 0,-446.5 6,-440.5 12,-440.5"/>
<text text-anchor="middle" x="118" y="-786.3" font-family="Times,serif" font-size="14.00">Escrow</text>
<polyline fill="none" stroke="black" points="0,-778.5 236,-778.5 "/>
<text text-anchor="start" x="8" y="-763.3" font-family="Times,serif" font-size="14.00">id :integer</text>
<text text-anchor="start" x="8" y="-748.3" font-family="Times,serif" font-size="14.00">user_id :integer</text>
<text text-anchor="start" x="8" y="-733.3" font-family="Times,serif" font-size="14.00">description :text</text>
<text text-anchor="start" x="8" y="-718.3" font-family="Times,serif" font-size="14.00">btc_amount :integer</text>
<text text-anchor="start" x="8" y="-703.3" font-family="Times,serif" font-size="14.00">buyer_email :string</text>
<text text-anchor="start" x="8" y="-688.3" font-family="Times,serif" font-size="14.00">seller_email :string</text>
<text text-anchor="start" x="8" y="-673.3" font-family="Times,serif" font-size="14.00">btc_escrow_fee :integer</text>
<text text-anchor="start" x="8" y="-658.3" font-family="Times,serif" font-size="14.00">btc_seller_fee :integer</text>
<text text-anchor="start" x="8" y="-643.3" font-family="Times,serif" font-size="14.00">btc_buyer_fee :integer</text>
<text text-anchor="start" x="8" y="-628.3" font-family="Times,serif" font-size="14.00">tracking_number :string</text>
<text text-anchor="start" x="8" y="-613.3" font-family="Times,serif" font-size="14.00">btc_amount_seller_will_receive :integer</text>
<text text-anchor="start" x="8" y="-598.3" font-family="Times,serif" font-size="14.00">max_shipping_days :integer</text>
<text text-anchor="start" x="8" y="-583.3" font-family="Times,serif" font-size="14.00">inspection_days :integer</text>
<text text-anchor="start" x="8" y="-568.3" font-family="Times,serif" font-size="14.00">payee_invitation :string</text>
<text text-anchor="start" x="8" y="-553.3" font-family="Times,serif" font-size="14.00">payer_invitation :string</text>
<text text-anchor="start" x="8" y="-538.3" font-family="Times,serif" font-size="14.00">btc_address :string</text>
<text text-anchor="start" x="8" y="-523.3" font-family="Times,serif" font-size="14.00">payment_invitation :string</text>
<text text-anchor="start" x="8" y="-508.3" font-family="Times,serif" font-size="14.00">payment_confirmation :string</text>
<text text-anchor="start" x="8" y="-493.3" font-family="Times,serif" font-size="14.00">private_WIF_key :string</text>
<text text-anchor="start" x="8" y="-478.3" font-family="Times,serif" font-size="14.00">aasm_state :string</text>
<text text-anchor="start" x="8" y="-463.3" font-family="Times,serif" font-size="14.00">created_at :datetime</text>
<text text-anchor="start" x="8" y="-448.3" font-family="Times,serif" font-size="14.00">updated_at :datetime</text>
</g>
<!-- Venue -->
<g id="node3" class="node"><title>Venue</title>
<path fill="none" stroke="black" d="M266.5,-463C266.5,-463 399.5,-463 399.5,-463 405.5,-463 411.5,-469 411.5,-475 411.5,-475 411.5,-767 411.5,-767 411.5,-773 405.5,-779 399.5,-779 399.5,-779 266.5,-779 266.5,-779 260.5,-779 254.5,-773 254.5,-767 254.5,-767 254.5,-475 254.5,-475 254.5,-469 260.5,-463 266.5,-463"/>
<text text-anchor="middle" x="333" y="-763.8" font-family="Times,serif" font-size="14.00">Venue</text>
<polyline fill="none" stroke="black" points="254.5,-756 411.5,-756 "/>
<text text-anchor="start" x="262.5" y="-740.8" font-family="Times,serif" font-size="14.00">id :integer</text>
<text text-anchor="start" x="262.5" y="-725.8" font-family="Times,serif" font-size="14.00">name :string</text>
<text text-anchor="start" x="262.5" y="-710.8" font-family="Times,serif" font-size="14.00">phone :string</text>
<text text-anchor="start" x="262.5" y="-695.8" font-family="Times,serif" font-size="14.00">email :string</text>
<text text-anchor="start" x="262.5" y="-680.8" font-family="Times,serif" font-size="14.00">website :string</text>
<text text-anchor="start" x="262.5" y="-665.8" font-family="Times,serif" font-size="14.00">contact_name :string</text>
<text text-anchor="start" x="262.5" y="-650.8" font-family="Times,serif" font-size="14.00">description :text</text>
<text text-anchor="start" x="262.5" y="-635.8" font-family="Times,serif" font-size="14.00">price :text</text>
<text text-anchor="start" x="262.5" y="-620.8" font-family="Times,serif" font-size="14.00">sm_image_link :string</text>
<text text-anchor="start" x="262.5" y="-605.8" font-family="Times,serif" font-size="14.00">big_image_link :string</text>
<text text-anchor="start" x="262.5" y="-590.8" font-family="Times,serif" font-size="14.00">r_link :string</text>
<text text-anchor="start" x="262.5" y="-575.8" font-family="Times,serif" font-size="14.00">hours :string</text>
<text text-anchor="start" x="262.5" y="-560.8" font-family="Times,serif" font-size="14.00">happy_hours :text</text>
<text text-anchor="start" x="262.5" y="-545.8" font-family="Times,serif" font-size="14.00">aasm_state :string</text>
<text text-anchor="start" x="262.5" y="-530.8" font-family="Times,serif" font-size="14.00">created_at :datetime</text>
<text text-anchor="start" x="262.5" y="-515.8" font-family="Times,serif" font-size="14.00">updated_at :datetime</text>
<text text-anchor="start" x="262.5" y="-500.8" font-family="Times,serif" font-size="14.00">full_street_address :string</text>
<text text-anchor="start" x="262.5" y="-485.8" font-family="Times,serif" font-size="14.00">lat :decimal</text>
<text text-anchor="start" x="262.5" y="-470.8" font-family="Times,serif" font-size="14.00">lng :decimal</text>
</g>
<!-- Event -->
<g id="node6" class="node"><title>Event</title>
<path fill="none" stroke="black" d="M530.5,-191C530.5,-191 673.5,-191 673.5,-191 679.5,-191 685.5,-197 685.5,-203 685.5,-203 685.5,-375 685.5,-375 685.5,-381 679.5,-387 673.5,-387 673.5,-387 530.5,-387 530.5,-387 524.5,-387 518.5,-381 518.5,-375 518.5,-375 518.5,-203 518.5,-203 518.5,-197 524.5,-191 530.5,-191"/>
<text text-anchor="middle" x="602" y="-371.8" font-family="Times,serif" font-size="14.00">Event</text>
<polyline fill="none" stroke="black" points="518.5,-364 685.5,-364 "/>
<text text-anchor="start" x="526.5" y="-348.8" font-family="Times,serif" font-size="14.00">id :integer</text>
<text text-anchor="start" x="526.5" y="-333.8" font-family="Times,serif" font-size="14.00">title :string</text>
<text text-anchor="start" x="526.5" y="-318.8" font-family="Times,serif" font-size="14.00">description :text</text>
<text text-anchor="start" x="526.5" y="-303.8" font-family="Times,serif" font-size="14.00">addmission_charge :integer</text>
<text text-anchor="start" x="526.5" y="-288.8" font-family="Times,serif" font-size="14.00">started_at :datetime</text>
<text text-anchor="start" x="526.5" y="-273.8" font-family="Times,serif" font-size="14.00">expired_at :datetime</text>
<text text-anchor="start" x="526.5" y="-258.8" font-family="Times,serif" font-size="14.00">schedule :text</text>
<text text-anchor="start" x="526.5" y="-243.8" font-family="Times,serif" font-size="14.00">venue_id :integer</text>
<text text-anchor="start" x="526.5" y="-228.8" font-family="Times,serif" font-size="14.00">aasm_state :string</text>
<text text-anchor="start" x="526.5" y="-213.8" font-family="Times,serif" font-size="14.00">created_at :datetime</text>
<text text-anchor="start" x="526.5" y="-198.8" font-family="Times,serif" font-size="14.00">updated_at :datetime</text>
</g>
<!-- Venue&#45;&gt;Event -->
<g id="edge6" class="edge"><title>Venue&#45;&gt;Event</title>
<path fill="none" stroke="#c3a637" d="M402.225,-456.527C407.732,-450.535 413.648,-444.977 420,-440 450.396,-416.183 472.55,-442.931 505,-422 516.635,-414.495 527.352,-405.071 537.081,-394.729"/>
<ellipse fill="none" stroke="#c3a637" cx="399.49" cy="-459.649" rx="4.00002" ry="4.00002"/>
<polygon fill="#c3a637" stroke="#c3a637" points="537.3,-394.485 547.334,-390.06 540.644,-390.768 543.989,-387.051 543.989,-387.051 543.989,-387.051 540.644,-390.768 540.643,-384.041 537.3,-394.485 537.3,-394.485"/>
</g>
<!-- Occurence -->
<g id="node7" class="node"><title>Occurence</title>
<path fill="none" stroke="black" d="M546.5,-0.5C546.5,-0.5 657.5,-0.5 657.5,-0.5 663.5,-0.5 669.5,-6.5 669.5,-12.5 669.5,-12.5 669.5,-139.5 669.5,-139.5 669.5,-145.5 663.5,-151.5 657.5,-151.5 657.5,-151.5 546.5,-151.5 546.5,-151.5 540.5,-151.5 534.5,-145.5 534.5,-139.5 534.5,-139.5 534.5,-12.5 534.5,-12.5 534.5,-6.5 540.5,-0.5 546.5,-0.5"/>
<text text-anchor="middle" x="602" y="-136.3" font-family="Times,serif" font-size="14.00">Occurence</text>
<polyline fill="none" stroke="black" points="534.5,-128.5 669.5,-128.5 "/>
<text text-anchor="start" x="542.5" y="-113.3" font-family="Times,serif" font-size="14.00">id :integer</text>
<text text-anchor="start" x="542.5" y="-98.3" font-family="Times,serif" font-size="14.00">started_at :datetime</text>
<text text-anchor="start" x="542.5" y="-83.3" font-family="Times,serif" font-size="14.00">expired_at :datetime</text>
<text text-anchor="start" x="542.5" y="-68.3" font-family="Times,serif" font-size="14.00">generated :boolean</text>
<text text-anchor="start" x="542.5" y="-53.3" font-family="Times,serif" font-size="14.00">canceled_at :datetime</text>
<text text-anchor="start" x="542.5" y="-38.3" font-family="Times,serif" font-size="14.00">event_id :integer</text>
<text text-anchor="start" x="542.5" y="-23.3" font-family="Times,serif" font-size="14.00">created_at :datetime</text>
<text text-anchor="start" x="542.5" y="-8.3" font-family="Times,serif" font-size="14.00">updated_at :datetime</text>
</g>
<!-- Venue&#45;&gt;Occurence -->
<g id="edge7" class="edge"><title>Venue&#45;&gt;Occurence</title>
<path fill="none" stroke="#3fb6f6" d="M409.501,-454.48C412.904,-449.51 416.405,-444.669 420,-440 427.5,-430.26 432.176,-430.558 441,-422 455.68,-407.763 462.84,-406.283 472,-388 512.137,-307.886 472.12,-271.206 510,-190 515.055,-179.164 521.379,-168.477 528.332,-158.254"/>
<polygon fill="#3fb6f6" stroke="#3fb6f6" points="409.401,-454.629 400.118,-460.467 406.634,-458.794 403.866,-462.958 403.866,-462.958 403.866,-462.958 406.634,-458.794 407.614,-465.449 409.401,-454.629 409.401,-454.629"/>
<polygon fill="#3fb6f6" stroke="#3fb6f6" points="528.543,-157.954 537.984,-152.376 531.425,-153.868 534.306,-149.782 534.306,-149.782 534.306,-149.782 531.425,-153.868 530.629,-147.189 528.543,-157.954 528.543,-157.954"/>
</g>
<!-- ActsAsTaggableOn::Tagging -->
<g id="node10" class="node"><title>ActsAsTaggableOn::Tagging</title>
<ellipse fill="none" stroke="black" cx="349" cy="-289" rx="114.085" ry="18"/>
<text text-anchor="middle" x="349" y="-285.3" font-family="Times,serif" font-size="14.00">ActsAsTaggableOn::Tagging</text>
</g>
<!-- Venue&#45;&gt;ActsAsTaggableOn::Tagging -->
<g id="edge2" class="edge"><title>Venue&#45;&gt;ActsAsTaggableOn::Tagging</title>
<path fill="none" stroke="#a0184d" d="M294.762,-454.702C294.533,-438.211 295.75,-421.752 299,-406 305.709,-373.488 321.966,-338.867 334.134,-315.998"/>
<ellipse fill="none" stroke="#a0184d" cx="294.877" cy="-458.799" rx="4" ry="4"/>
<polygon fill="#a0184d" stroke="#a0184d" points="334.275,-315.739 343.01,-309.109 336.666,-311.348 339.058,-306.957 339.058,-306.957 339.058,-306.957 336.666,-311.348 335.106,-304.804 334.275,-315.739 334.275,-315.739"/>
<text text-anchor="middle" x="322" y="-410.3" font-family="Times,serif" font-size="14.00">taggings</text>
</g>
<!-- Venue&#45;&gt;ActsAsTaggableOn::Tagging -->
<g id="edge4" class="edge"><title>Venue&#45;&gt;ActsAsTaggableOn::Tagging</title>
<path fill="none" stroke="#d6ed8f" d="M343.393,-454.701C343.973,-443.636 344.516,-432.658 345,-422 346.647,-385.766 347.786,-343.905 348.416,-317.209"/>
<ellipse fill="none" stroke="#d6ed8f" cx="343.176" cy="-458.775" rx="4" ry="4"/>
<polygon fill="#d6ed8f" stroke="#d6ed8f" points="348.418,-317.091 353.146,-307.196 348.533,-312.092 348.647,-307.093 348.647,-307.093 348.647,-307.093 348.533,-312.092 344.148,-306.99 348.418,-317.091 348.418,-317.091"/>
<text text-anchor="middle" x="391.5" y="-410.3" font-family="Times,serif" font-size="14.00">feature_taggings</text>
</g>
<!-- ActsAsTaggableOn::Tag -->
<g id="node11" class="node"><title>ActsAsTaggableOn::Tag</title>
<ellipse fill="none" stroke="black" cx="118" cy="-289" rx="98.1881" ry="18"/>
<text text-anchor="middle" x="118" y="-285.3" font-family="Times,serif" font-size="14.00">ActsAsTaggableOn::Tag</text>
</g>
<!-- Venue&#45;&gt;ActsAsTaggableOn::Tag -->
<g id="edge3" class="edge"><title>Venue&#45;&gt;ActsAsTaggableOn::Tag</title>
<path fill="none" stroke="#543759" d="M253.805,-453.965C250.91,-449.216 247.972,-444.55 245,-440 213.786,-392.215 169.141,-342.834 141.943,-314.345"/>
<polygon fill="#543759" stroke="#543759" points="253.836,-454.017 255.109,-464.909 256.403,-458.308 258.971,-462.598 258.971,-462.598 258.971,-462.598 256.403,-458.308 262.832,-460.288 253.836,-454.017 253.836,-454.017"/>
<polygon fill="#543759" stroke="#543759" points="141.695,-314.087 138.003,-303.762 138.228,-310.485 134.761,-306.882 134.761,-306.882 134.761,-306.882 138.228,-310.485 131.518,-310.003 141.695,-314.087 141.695,-314.087"/>
<text text-anchor="middle" x="256.5" y="-410.3" font-family="Times,serif" font-size="14.00">base_tags</text>
</g>
<!-- Venue&#45;&gt;ActsAsTaggableOn::Tag -->
<g id="edge5" class="edge"><title>Venue&#45;&gt;ActsAsTaggableOn::Tag</title>
<path fill="none" stroke="#c751be" d="M260.929,-455.129C255.942,-449.706 250.637,-444.628 245,-440 220.837,-420.162 200.818,-442.25 177,-422 145.181,-394.947 129.8,-347.301 122.931,-317.257"/>
<polygon fill="#c751be" stroke="#c751be" points="260.975,-455.181 264.141,-465.68 264.256,-458.954 267.537,-462.727 267.537,-462.727 267.537,-462.727 264.256,-458.954 270.932,-459.774 260.975,-455.181 260.975,-455.181"/>
<polygon fill="#c751be" stroke="#c751be" points="122.921,-317.209 125.245,-306.492 121.882,-312.318 120.843,-307.427 120.843,-307.427 120.843,-307.427 121.882,-312.318 116.441,-308.362 122.921,-317.209 122.921,-317.209"/>
<text text-anchor="middle" x="198.5" y="-410.3" font-family="Times,serif" font-size="14.00">features</text>
</g>
<!-- Location -->
<g id="node4" class="node"><title>Location</title>
<path fill="none" stroke="black" d="M441.5,-538C441.5,-538 574.5,-538 574.5,-538 580.5,-538 586.5,-544 586.5,-550 586.5,-550 586.5,-692 586.5,-692 586.5,-698 580.5,-704 574.5,-704 574.5,-704 441.5,-704 441.5,-704 435.5,-704 429.5,-698 429.5,-692 429.5,-692 429.5,-550 429.5,-550 429.5,-544 435.5,-538 441.5,-538"/>
<text text-anchor="middle" x="508" y="-688.8" font-family="Times,serif" font-size="14.00">Location</text>
<polyline fill="none" stroke="black" points="429.5,-681 586.5,-681 "/>
<text text-anchor="start" x="437.5" y="-665.8" font-family="Times,serif" font-size="14.00">id :integer</text>
<text text-anchor="start" x="437.5" y="-650.8" font-family="Times,serif" font-size="14.00">full_street_address :string</text>
<text text-anchor="start" x="437.5" y="-635.8" font-family="Times,serif" font-size="14.00">lat :decimal</text>
<text text-anchor="start" x="437.5" y="-620.8" font-family="Times,serif" font-size="14.00">lng :decimal</text>
<text text-anchor="start" x="437.5" y="-605.8" font-family="Times,serif" font-size="14.00">aasm_state :string</text>
<text text-anchor="start" x="437.5" y="-590.8" font-family="Times,serif" font-size="14.00">locatable_id :integer</text>
<text text-anchor="start" x="437.5" y="-575.8" font-family="Times,serif" font-size="14.00">locatable_type :string</text>
<text text-anchor="start" x="437.5" y="-560.8" font-family="Times,serif" font-size="14.00">created_at :datetime</text>
<text text-anchor="start" x="437.5" y="-545.8" font-family="Times,serif" font-size="14.00">updated_at :datetime</text>
</g>
<!-- User -->
<g id="node5" class="node"><title>User</title>
<path fill="none" stroke="black" d="M655.5,-478C655.5,-478 762.5,-478 762.5,-478 768.5,-478 774.5,-484 774.5,-490 774.5,-490 774.5,-752 774.5,-752 774.5,-758 768.5,-764 762.5,-764 762.5,-764 655.5,-764 655.5,-764 649.5,-764 643.5,-758 643.5,-752 643.5,-752 643.5,-490 643.5,-490 643.5,-484 649.5,-478 655.5,-478"/>
<text text-anchor="middle" x="709" y="-748.8" font-family="Times,serif" font-size="14.00">User</text>
<polyline fill="none" stroke="black" points="643.5,-741 774.5,-741 "/>
<text text-anchor="start" x="651.5" y="-725.8" font-family="Times,serif" font-size="14.00">id :integer</text>
<text text-anchor="start" x="651.5" y="-710.8" font-family="Times,serif" font-size="14.00">provider :string</text>
<text text-anchor="start" x="651.5" y="-695.8" font-family="Times,serif" font-size="14.00">uid :string</text>
<text text-anchor="start" x="651.5" y="-680.8" font-family="Times,serif" font-size="14.00">email :string</text>
<text text-anchor="start" x="651.5" y="-665.8" font-family="Times,serif" font-size="14.00">name :string</text>
<text text-anchor="start" x="651.5" y="-650.8" font-family="Times,serif" font-size="14.00">first_name :string</text>
<text text-anchor="start" x="651.5" y="-635.8" font-family="Times,serif" font-size="14.00">last_name :string</text>
<text text-anchor="start" x="651.5" y="-620.8" font-family="Times,serif" font-size="14.00">gender :string</text>
<text text-anchor="start" x="651.5" y="-605.8" font-family="Times,serif" font-size="14.00">image_url :string</text>
<text text-anchor="start" x="651.5" y="-590.8" font-family="Times,serif" font-size="14.00">oauth_token :string</text>
<text text-anchor="start" x="651.5" y="-575.8" font-family="Times,serif" font-size="14.00">aasm_state :string</text>
<text text-anchor="start" x="651.5" y="-560.8" font-family="Times,serif" font-size="14.00">country_code :string</text>
<text text-anchor="start" x="651.5" y="-545.8" font-family="Times,serif" font-size="14.00">postal_code :string</text>
<text text-anchor="start" x="651.5" y="-530.8" font-family="Times,serif" font-size="14.00">lat :decimal</text>
<text text-anchor="start" x="651.5" y="-515.8" font-family="Times,serif" font-size="14.00">lng :decimal</text>
<text text-anchor="start" x="651.5" y="-500.8" font-family="Times,serif" font-size="14.00">created_at :datetime</text>
<text text-anchor="start" x="651.5" y="-485.8" font-family="Times,serif" font-size="14.00">updated_at :datetime</text>
</g>
<!-- Picture -->
<g id="node12" class="node"><title>Picture</title>
<ellipse fill="none" stroke="black" cx="739" cy="-289" rx="35.6194" ry="18"/>
<text text-anchor="middle" x="739" y="-285.3" font-family="Times,serif" font-size="14.00">Picture</text>
</g>
<!-- User&#45;&gt;Picture -->
<g id="edge10" class="edge"><title>User&#45;&gt;Picture</title>
<path fill="none" stroke="#9f0999" d="M722.69,-469.413C728.064,-410.299 733.664,-348.7 736.702,-315.275"/>
<ellipse fill="none" stroke="#9f0999" cx="722.303" cy="-473.672" rx="4" ry="4"/>
<ellipse fill="#9f0999" stroke="#9f0999" cx="737.091" cy="-310.995" rx="4" ry="4"/>
</g>
<!-- Event&#45;&gt;Occurence -->
<g id="edge12" class="edge"><title>Event&#45;&gt;Occurence</title>
<path fill="none" stroke="#146583" d="M602,-182.782C602,-175.697 602,-168.611 602,-161.651"/>
<ellipse fill="none" stroke="#146583" cx="602" cy="-186.837" rx="4" ry="4"/>
<polygon fill="#146583" stroke="#146583" points="602,-161.559 606.5,-151.559 602,-156.559 602,-151.559 602,-151.559 602,-151.559 602,-156.559 597.5,-151.559 602,-161.559 602,-161.559"/>
</g>
<!-- Ability -->
<g id="node8" class="node"><title>Ability</title>
<polygon fill="none" stroke="black" points="831.5,-598 831.5,-644 886.5,-644 886.5,-598 831.5,-598"/>
<text text-anchor="middle" x="859" y="-628.8" font-family="Times,serif" font-size="14.00">Ability</text>
<polyline fill="none" stroke="black" points="831.5,-621 886.5,-621 "/>
<text text-anchor="middle" x="859" y="-605.8" font-family="Times,serif" font-size="14.00"> </text>
</g>
<!-- ActiveRecord::Base -->
<g id="node9" class="node"><title>ActiveRecord::Base</title>
<ellipse fill="none" stroke="black" cx="562" cy="-879" rx="81.3646" ry="18"/>
<text text-anchor="middle" x="562" y="-875.3" font-family="Times,serif" font-size="14.00">ActiveRecord::Base</text>
</g>
<!-- ActiveRecord::Base&#45;&gt;Escrow -->
<g id="edge1" class="edge"><title>ActiveRecord::Base&#45;&gt;Escrow</title>
<path fill="none" stroke="black" d="M529.798,-862.427C512.675,-854.696 491.068,-845.794 471,-840 373.143,-811.747 331.217,-856.23 245,-802 242.086,-800.167 239.221,-798.241 236.403,-796.23"/>
</g>
<!-- ActiveRecord::Base&#45;&gt;Venue -->
<g id="edge8" class="edge"><title>ActiveRecord::Base&#45;&gt;Venue</title>
<path fill="none" stroke="black" d="M527.647,-862.634C491.006,-845.73 436.069,-818.745 420,-802 413.271,-794.988 406.973,-787.356 401.093,-779.325"/>
</g>
<!-- ActiveRecord::Base&#45;&gt;Location -->
<g id="edge9" class="edge"><title>ActiveRecord::Base&#45;&gt;Location</title>
<path fill="none" stroke="black" d="M558.373,-860.806C551.704,-829.192 537.101,-759.958 525.326,-704.136"/>
</g>
<!-- ActiveRecord::Base&#45;&gt;User -->
<g id="edge11" class="edge"><title>ActiveRecord::Base&#45;&gt;User</title>
<path fill="none" stroke="black" d="M586.955,-861.781C600.856,-851.708 617.606,-837.708 629,-822 641.791,-804.367 652.902,-784.403 662.437,-764.083"/>
</g>
<!-- ActiveRecord::Base&#45;&gt;Event -->
<g id="edge13" class="edge"><title>ActiveRecord::Base&#45;&gt;Event</title>
<path fill="none" stroke="black" d="M571.798,-860.849C579.776,-845.862 590.437,-823.236 595,-802 625.488,-660.114 619.939,-490.981 611.915,-387.049"/>
</g>
<!-- ActiveRecord::Base&#45;&gt;Occurence -->
<g id="edge14" class="edge"><title>ActiveRecord::Base&#45;&gt;Occurence</title>
<path fill="none" stroke="black" d="M639.391,-873.414C689.244,-865.966 750.595,-847.412 783,-802 822.499,-746.648 815.979,-249.467 783,-190 758.925,-146.589 710.462,-117.663 669.738,-99.9527"/>
</g>
<!-- Object -->
<g id="node13" class="node"><title>Object</title>
<ellipse fill="none" stroke="black" cx="859" cy="-879" rx="34.1708" ry="18"/>
<text text-anchor="middle" x="859" y="-875.3" font-family="Times,serif" font-size="14.00">Object</text>
</g>
<!-- Object&#45;&gt;Ability -->
<g id="edge15" class="edge"><title>Object&#45;&gt;Ability</title>
<path fill="none" stroke="black" d="M859,-860.806C859,-815.739 859,-694.224 859,-644.091"/>
</g>
</g>
</svg>
